<svg width="1440" height="154" viewBox="0 0 1440 154" fill="#0071f0" xmlns="http://www.w3.org/2000/svg">
<g clip-path="url(#clip0_13004_11681)">
<path fill-rule="evenodd" clip-rule="evenodd" d="M1440 0H0V111.677C1.55274 112.083 3.12677 112.443 4.69998 112.802C11.0611 114.257 17.409 115.708 22.2836 120.141C23.2027 120.871 24.2905 121.442 25.4825 121.82C26.6745 122.198 27.9466 122.376 29.2234 122.342C36.1632 121.844 41.3839 124.412 46.5091 127.583C51.1059 130.914 57.0681 132.684 63.19 132.535C65.0201 132.266 66.9063 132.458 68.6017 133.085C73.7765 135.888 79.4173 135.659 84.926 135.436C85.8561 135.399 86.7823 135.361 87.702 135.339C94.031 134.835 100.417 135.506 106.388 137.304C107.913 137.994 109.67 138.258 111.392 138.054C113.115 137.851 114.711 137.192 115.939 136.177C117.42 134.92 119.232 133.959 121.235 133.368C123.239 132.778 125.38 132.573 127.494 132.771C129.07 132.758 130.627 132.491 132.078 131.985C134.334 131.479 136.538 130.831 138.739 130.184C143.152 128.886 147.556 127.592 152.356 127.452C153.668 127.352 154.917 126.942 155.954 126.272C157.481 125.37 159.279 124.829 161.154 124.709C163.029 124.588 164.907 124.894 166.586 125.591C177.218 129.941 187.182 127.059 196.828 123.967C200.156 122.925 203.797 122.769 207.238 123.521C210.829 123.63 214.423 123.366 217.934 122.735C218.38 122.735 218.889 123.076 219.303 123.364C222.364 125.617 225.279 124.819 228.167 124.028C229.544 123.651 230.914 123.275 232.291 123.233C233.729 123.189 235.15 123.472 236.586 123.759C239.41 124.323 242.295 124.899 245.502 123.023C249.703 120.793 254.284 119.088 259.095 117.966C261.878 117.502 264.759 117.628 267.467 118.333C273.878 119.339 280.172 120.794 286.281 122.683C287.762 123.196 289.355 123.505 290.95 123.813C294.155 124.433 297.366 125.055 299.683 127.347C300.892 128.491 302.436 129.361 304.169 129.875C305.902 130.388 307.766 130.528 309.583 130.282C310.189 130.252 310.825 130.205 311.473 130.157C314.225 129.953 317.178 129.735 318.879 130.753C322.538 132.785 326.768 134.012 331.166 134.317C335.21 135.188 339.471 135.097 343.454 134.055C346.439 133.487 349.526 133.38 352.559 133.74C353.32 133.74 354.159 133.983 354.966 134.216C356.017 134.52 357.014 134.808 357.716 134.526C362.456 132.611 367.411 132.64 372.351 132.669C374.775 132.684 377.196 132.698 379.586 132.483C381.011 132.351 382.411 132.1 383.808 131.849C385.189 131.602 386.565 131.355 387.958 131.225C390.164 130.857 392.437 130.857 394.643 131.225C400.66 132.771 406.358 134.133 410.846 128.762C411.31 128.438 411.862 128.211 412.455 128.102C413.049 127.992 413.665 128.003 414.253 128.133C415.844 129.53 417.902 130.51 420.167 130.948C422.433 131.386 424.805 131.264 426.986 130.596C427.352 130.501 427.799 130.713 428.258 130.929C428.557 131.071 428.861 131.215 429.151 131.277C431.952 131.827 434.753 132.378 437.555 132.876C440.356 133.373 443.635 133.95 446.691 134.448C453.547 135.897 460.513 136.965 467.542 137.645C475.814 138.035 484.145 137.893 492.503 137.751C494.792 137.712 497.083 137.673 499.376 137.645C501.429 137.38 503.452 136.977 505.424 136.439C513.16 135.129 521.182 133.95 528.408 137.173C535.635 140.396 544.039 140.501 552.188 140.317C553.744 140.228 555.235 139.773 556.486 139.007C559.563 136.621 563.593 135.242 567.819 135.129C568.714 135.05 569.578 134.809 570.348 134.424C571.118 134.039 571.776 133.519 572.275 132.902C574.981 129.286 578.642 126.823 583.799 127.452C584.333 127.512 584.878 127.57 585.429 127.628C589.416 128.051 593.736 128.509 596.533 130.282C598.486 131.532 600.817 132.319 603.274 132.559C605.731 132.8 608.221 132.483 610.476 131.644C613.154 130.973 615.966 130.741 618.753 130.963C620.36 131.076 621.945 131.414 623.53 131.751C625.24 132.116 626.95 132.48 628.685 132.561C632.038 132.728 635.403 132.702 638.772 132.675C641.223 132.656 643.676 132.637 646.13 132.692C646.686 132.708 647.241 132.729 647.794 132.75C651.958 132.908 656.025 133.063 659.818 130.727C661.68 129.882 663.852 129.621 665.93 129.993C671.477 130.772 676.635 134.744 681.602 138.57C687.84 143.374 693.776 147.946 699.801 145.67C709.606 142.028 719.474 138.386 730.839 139.539C734.77 140.064 738.799 139.766 742.554 138.674C750.441 135.955 759.253 135.657 767.384 137.836C776.934 140.456 783.619 138.307 790.623 133.905C794.266 133.137 796.629 133.877 798.956 134.605C800.702 135.151 802.429 135.692 804.661 135.584C807.205 135.293 809.663 134.628 811.92 133.619C817.282 131.45 822.876 129.696 828.632 128.378C835.204 127.63 841.857 127.498 848.465 127.985C855.723 128.247 862.79 127.985 869.061 124.684C870.386 123.791 872.01 123.252 873.717 123.139C875.423 123.027 877.131 123.346 878.611 124.055C879.947 124.666 882.224 124.137 884.1 123.702C884.235 123.67 884.369 123.639 884.5 123.609C886.417 123.222 888.322 122.704 890.223 122.187C893.849 121.201 897.463 120.219 901.118 120.15C908.503 119.993 915.156 119.705 920.473 114.753C921.849 113.408 923.766 112.515 925.876 112.236C927.985 111.957 930.146 112.311 931.965 113.233C933.578 113.886 935.434 114.008 937.154 113.574C943.137 111.407 949.349 109.696 955.713 108.464C964.085 106.735 971.948 105.844 979.651 110.56C985.477 114.15 992.894 116.482 999.739 114.229C1003.8 112.911 1007.81 112.67 1011.82 112.429C1013.71 112.316 1015.6 112.202 1017.5 111.975C1019.81 111.55 1022.22 111.694 1024.42 112.389C1026.63 113.083 1028.54 114.297 1029.92 115.879C1034.47 120.57 1039.47 120.884 1046.22 118.5C1048.76 117.601 1051.35 116.795 1053.93 115.991C1058.2 114.662 1062.46 113.339 1066.46 111.608C1070.05 110.319 1073.89 109.556 1077.79 109.355C1083.81 108.992 1089.74 107.933 1095.4 106.211C1099.27 104.739 1103.14 104.575 1106.99 104.412C1109.03 104.325 1111.07 104.239 1113.1 103.957L1113.16 103.949C1119 103.139 1125.28 102.268 1130.54 106.368C1131.2 106.89 1132.42 106.874 1133.69 106.856C1134.45 106.846 1135.24 106.836 1135.92 106.944C1141.23 107.771 1145.91 106.269 1150.56 104.78C1152.25 104.24 1153.93 103.701 1155.63 103.276C1156.93 102.838 1158.36 102.766 1159.71 103.069C1161.07 103.372 1162.26 104.034 1163.11 104.953C1164.35 105.948 1165.5 107.077 1166.65 108.201C1168.79 110.305 1170.92 112.396 1173.61 113.574C1179.18 116.373 1184.2 119.844 1188.51 123.871C1196.31 130.16 1205.19 134.353 1216.72 133.2C1219.22 132.966 1221.77 132.925 1224.33 132.884C1231.5 132.77 1238.67 132.655 1244.73 128.247C1254.46 126.545 1263.85 123.722 1272.62 119.862C1273.97 119.206 1275.36 118.612 1276.79 118.081C1279.06 117.174 1281.67 116.986 1284.1 117.55C1286.53 118.115 1288.63 119.394 1290 121.146C1290.88 122.468 1292.22 123.54 1293.85 124.223C1295.48 124.906 1297.32 125.167 1299.14 124.972C1301.71 124.902 1304.25 125.498 1306.39 126.675C1314 131.575 1321.58 135.243 1331.41 130.789C1332.89 130.263 1334.51 130.099 1336.09 130.317C1341.42 131.127 1346.93 130.656 1351.94 128.96C1356.95 127.264 1361.27 124.415 1364.36 120.753C1371.27 113.023 1380.82 110.77 1392.06 112.29C1393.61 112.628 1395.25 112.473 1396.67 111.857C1398.09 111.24 1399.17 110.206 1399.7 108.962C1401.48 105.267 1405.27 104.638 1409.95 104.35C1416.11 103.943 1424.2 105.722 1429.13 106.804C1430.54 107.114 1431.69 107.367 1432.45 107.495C1435.91 108.068 1440 108.5 1440 108.5V0Z" />
</g>
<defs>
<clipPath id="clip0_13004_11681">
<rect width="1440" height="154" fill="white"/>
</clipPath>
</defs>
</svg>
